
<svg width="1440px" height="640px" viewBox="0 0 1440 640" version="1.1" xmlns="http://www.w3.org/2000/svg" xmlns:xlink="http://www.w3.org/1999/xlink">
    <!-- Generator: Sketch 45.1 (43504) - http://www.bohemiancoding.com/sketch -->
    <desc>Created with Sketch.</desc>
    <defs>
        <rect id="path-1" x="0" y="0" width="1440" height="526"></rect>
        <path d="M274.246212,71.1040764 L320.208153,25.1421356 L306.066017,11 L260.104076,56.9619408 L214.142136,11 L200,25.1421356 L245.961941,71.1040764 L200,117.066017 L214.142136,131.208153 L260.104076,85.246212 L306.066017,131.208153 L320.208153,117.066017 L274.246212,71.1040764 Z" id="path-2"></path>
        <path d="M1194.24621,70.1040764 L1240.20815,24.1421356 L1226.06602,10 L1180.10408,55.9619408 L1134.14214,10 L1120,24.1421356 L1165.96194,70.1040764 L1120,116.066017 L1134.14214,130.208153 L1180.10408,84.246212 L1226.06602,130.208153 L1240.20815,116.066017 L1194.24621,70.1040764 Z" id="path-3"></path>
        <path d="M274.246212,189.104076 L320.208153,143.142136 L306.066017,129 L260.104076,174.961941 L214.142136,129 L200,143.142136 L245.961941,189.104076 L200,235.066017 L214.142136,249.208153 L260.104076,203.246212 L306.066017,249.208153 L320.208153,235.066017 L274.246212,189.104076 Z" id="path-4"></path>
        <path d="M1194.24621,188.104076 L1240.20815,142.142136 L1226.06602,128 L1180.10408,173.961941 L1134.14214,128 L1120,142.142136 L1165.96194,188.104076 L1120,234.066017 L1134.14214,248.208153 L1180.10408,202.246212 L1226.06602,248.208153 L1240.20815,234.066017 L1194.24621,188.104076 Z" id="path-5"></path>
        <path d="M274.246212,303.104076 L320.208153,257.142136 L306.066017,243 L260.104076,288.961941 L214.142136,243 L200,257.142136 L245.961941,303.104076 L200,349.066017 L214.142136,363.208153 L260.104076,317.246212 L306.066017,363.208153 L320.208153,349.066017 L274.246212,303.104076 Z" id="path-6"></path>
        <path d="M1194.24621,302.104076 L1240.20815,256.142136 L1226.06602,242 L1180.10408,287.961941 L1134.14214,242 L1120,256.142136 L1165.96194,302.104076 L1120,348.066017 L1134.14214,362.208153 L1180.10408,316.246212 L1226.06602,362.208153 L1240.20815,348.066017 L1194.24621,302.104076 Z" id="path-7"></path>
        <path d="M274.246212,427.104076 L320.208153,381.142136 L306.066017,367 L260.104076,412.961941 L214.142136,367 L200,381.142136 L245.961941,427.104076 L200,473.066017 L214.142136,487.208153 L260.104076,441.246212 L306.066017,487.208153 L320.208153,473.066017 L274.246212,427.104076 Z" id="path-8"></path>
        <path d="M1194.24621,426.104076 L1240.20815,380.142136 L1226.06602,366 L1180.10408,411.961941 L1134.14214,366 L1120,380.142136 L1165.96194,426.104076 L1120,472.066017 L1134.14214,486.208153 L1180.10408,440.246212 L1226.06602,486.208153 L1240.20815,472.066017 L1194.24621,426.104076 Z" id="path-9"></path>
        <path d="M274.246212,544.104076 L320.208153,498.142136 L306.066017,484 L260.104076,529.961941 L214.142136,484 L200,498.142136 L245.961941,544.104076 L200,590.066017 L214.142136,604.208153 L260.104076,558.246212 L306.066017,604.208153 L320.208153,590.066017 L274.246212,544.104076 Z" id="path-10"></path>
        <path d="M1194.24621,543.104076 L1240.20815,497.142136 L1226.06602,483 L1180.10408,528.961941 L1134.14214,483 L1120,497.142136 L1165.96194,543.104076 L1120,589.066017 L1134.14214,603.208153 L1180.10408,557.246212 L1226.06602,603.208153 L1240.20815,589.066017 L1194.24621,543.104076 Z" id="path-11"></path>
        <rect id="path-12" x="300" y="0" width="20" height="603"></rect>
        <rect id="path-13" x="200" y="0" width="20" height="603"></rect>
        <rect id="path-14" x="1120" y="0" width="20" height="603"></rect>
        <rect id="path-15" x="200" y="10" width="120" height="20"></rect>
        <rect id="path-16" x="1220" y="0" width="20" height="603"></rect>
        <rect id="path-17" x="0" y="376" width="1440" height="20"></rect>
        <rect id="path-18" x="1120" y="10" width="120" height="20"></rect>
    </defs>
    <g id="Page-1" stroke="none" stroke-width="1" fill="none" fill-rule="evenodd">
        <g id="Bay_Bridge_Day">
            <g id="Day">
                <use fill="#7EC0EE" fill-rule="evenodd" xlink:href="#path-1"></use>
                <rect stroke="#979797" stroke-width="1" x="0.5" y="0.5" width="1439" height="525"></rect>
            </g>
            <path d="M0,526 C0,526 96.823865,491 160,491 C223.176135,491 296,526 296,526 C296,526 391.835305,518.044053 425,516 C458.164695,513.955947 679,526 679,526 C679,526 841.175131,481.222035 903,479 C964.824869,476.777965 987.400566,526.85239 1072,526 C1131.02111,525.405327 1243.53879,507.715037 1309,504.064784 C1374.46121,500.41453 1440,526 1440,526 L1440,640 L6.24500451e-16,640 L0,526 Z" id="Water" fill="#1C6BA0"></path>
            <g id="Structure" transform="translate(0.000000, 20.000000)">
                <g id="Combined-Shape">
                    <use fill="#D0021B" fill-rule="evenodd" xlink:href="#path-2"></use>
                    <path stroke="#979797" stroke-width="1" d="M319.501046,25.1421356 L306.066017,11.7071068 L260.104076,57.6690476 L214.142136,11.7071068 L200.707107,25.1421356 L246.669048,71.1040764 L200.707107,117.066017 L214.142136,130.501046 L260.104076,84.5391052 L306.066017,130.501046 L319.501046,117.066017 L273.539105,71.1040764 L319.501046,25.1421356 Z"></path>
                </g>
                <g id="Combined-Shape-Copy-5">
                    <use fill="#D0021B" fill-rule="evenodd" xlink:href="#path-3"></use>
                    <path stroke="#979797" stroke-width="1" d="M1239.50105,24.1421356 L1226.06602,10.7071068 L1180.10408,56.6690476 L1134.14214,10.7071068 L1120.70711,24.1421356 L1166.66905,70.1040764 L1120.70711,116.066017 L1134.14214,129.501046 L1180.10408,83.5391052 L1226.06602,129.501046 L1239.50105,116.066017 L1193.53911,70.1040764 L1239.50105,24.1421356 Z"></path>
                </g>
                <g id="Combined-Shape-Copy">
                    <use fill="#D0021B" fill-rule="evenodd" xlink:href="#path-4"></use>
                    <path stroke="#979797" stroke-width="1" d="M319.501046,143.142136 L306.066017,129.707107 L260.104076,175.669048 L214.142136,129.707107 L200.707107,143.142136 L246.669048,189.104076 L200.707107,235.066017 L214.142136,248.501046 L260.104076,202.539105 L306.066017,248.501046 L319.501046,235.066017 L273.539105,189.104076 L319.501046,143.142136 Z"></path>
                </g>
                <g id="Combined-Shape-Copy-6">
                    <use fill="#D0021B" fill-rule="evenodd" xlink:href="#path-5"></use>
                    <path stroke="#979797" stroke-width="1" d="M1239.50105,142.142136 L1226.06602,128.707107 L1180.10408,174.669048 L1134.14214,128.707107 L1120.70711,142.142136 L1166.66905,188.104076 L1120.70711,234.066017 L1134.14214,247.501046 L1180.10408,201.539105 L1226.06602,247.501046 L1239.50105,234.066017 L1193.53911,188.104076 L1239.50105,142.142136 Z"></path>
                </g>
                <g id="Combined-Shape-Copy-2">
                    <use fill="#D0021B" fill-rule="evenodd" xlink:href="#path-6"></use>
                    <path stroke="#979797" stroke-width="1" d="M319.501046,257.142136 L306.066017,243.707107 L260.104076,289.669048 L214.142136,243.707107 L200.707107,257.142136 L246.669048,303.104076 L200.707107,349.066017 L214.142136,362.501046 L260.104076,316.539105 L306.066017,362.501046 L319.501046,349.066017 L273.539105,303.104076 L319.501046,257.142136 Z"></path>
                </g>
                <g id="Combined-Shape-Copy-7">
                    <use fill="#D0021B" fill-rule="evenodd" xlink:href="#path-7"></use>
                    <path stroke="#979797" stroke-width="1" d="M1239.50105,256.142136 L1226.06602,242.707107 L1180.10408,288.669048 L1134.14214,242.707107 L1120.70711,256.142136 L1166.66905,302.104076 L1120.70711,348.066017 L1134.14214,361.501046 L1180.10408,315.539105 L1226.06602,361.501046 L1239.50105,348.066017 L1193.53911,302.104076 L1239.50105,256.142136 Z"></path>
                </g>
                <g id="Combined-Shape-Copy-3">
                    <use fill="#D0021B" fill-rule="evenodd" xlink:href="#path-8"></use>
                    <path stroke="#979797" stroke-width="1" d="M319.501046,381.142136 L306.066017,367.707107 L260.104076,413.669048 L214.142136,367.707107 L200.707107,381.142136 L246.669048,427.104076 L200.707107,473.066017 L214.142136,486.501046 L260.104076,440.539105 L306.066017,486.501046 L319.501046,473.066017 L273.539105,427.104076 L319.501046,381.142136 Z"></path>
                </g>
                <g id="Combined-Shape-Copy-8">
                    <use fill="#D0021B" fill-rule="evenodd" xlink:href="#path-9"></use>
                    <path stroke="#979797" stroke-width="1" d="M1239.50105,380.142136 L1226.06602,366.707107 L1180.10408,412.669048 L1134.14214,366.707107 L1120.70711,380.142136 L1166.66905,426.104076 L1120.70711,472.066017 L1134.14214,485.501046 L1180.10408,439.539105 L1226.06602,485.501046 L1239.50105,472.066017 L1193.53911,426.104076 L1239.50105,380.142136 Z"></path>
                </g>
                <g id="Combined-Shape-Copy-4">
                    <use fill="#D0021B" fill-rule="evenodd" xlink:href="#path-10"></use>
                    <path stroke="#979797" stroke-width="1" d="M319.501046,498.142136 L306.066017,484.707107 L260.104076,530.669048 L214.142136,484.707107 L200.707107,498.142136 L246.669048,544.104076 L200.707107,590.066017 L214.142136,603.501046 L260.104076,557.539105 L306.066017,603.501046 L319.501046,590.066017 L273.539105,544.104076 L319.501046,498.142136 Z"></path>
                </g>
                <g id="Combined-Shape-Copy-9">
                    <use fill="#D0021B" fill-rule="evenodd" xlink:href="#path-11"></use>
                    <path stroke="#979797" stroke-width="1" d="M1239.50105,497.142136 L1226.06602,483.707107 L1180.10408,529.669048 L1134.14214,483.707107 L1120.70711,497.142136 L1166.66905,543.104076 L1120.70711,589.066017 L1134.14214,602.501046 L1180.10408,556.539105 L1226.06602,602.501046 L1239.50105,589.066017 L1193.53911,543.104076 L1239.50105,497.142136 Z"></path>
                </g>
                <g id="Rectangle-2">
                    <use fill="#D0021B" fill-rule="evenodd" xlink:href="#path-12"></use>
                    <rect stroke="#FFFFFF" stroke-width="1" x="300.5" y="0.5" width="19" height="602"></rect>
                </g>
                <g id="Rectangle-2-Copy-2">
                    <use fill="#D0021B" fill-rule="evenodd" xlink:href="#path-13"></use>
                    <rect stroke="#FFFFFF" stroke-width="1" x="200.5" y="0.5" width="19" height="602"></rect>
                </g>
                <g id="Rectangle-2-Copy">
                    <use fill="#D0021B" fill-rule="evenodd" xlink:href="#path-14"></use>
                    <rect stroke="#FFFFFF" stroke-width="1" x="1120.5" y="0.5" width="19" height="602"></rect>
                </g>
                <g id="Rectangle-5">
                    <use fill="#D0021B" fill-rule="evenodd" xlink:href="#path-15"></use>
                    <rect stroke="#FFFFFF" stroke-width="1" x="200.5" y="10.5" width="119" height="19"></rect>
                </g>
                <g id="Rectangle-2-Copy-3">
                    <use fill="#D0021B" fill-rule="evenodd" xlink:href="#path-16"></use>
                    <rect stroke="#FFFFFF" stroke-width="1" x="1220.5" y="0.5" width="19" height="602"></rect>
                </g>
                <g id="Rectangle-3">
                    <use fill="#D0021B" fill-rule="evenodd" xlink:href="#path-17"></use>
                    <rect stroke="#FFFFFF" stroke-width="1" x="0.5" y="376.5" width="1439" height="19"></rect>
                </g>
                <g id="Rectangle-5-Copy">
                    <use fill="#D0021B" fill-rule="evenodd" xlink:href="#path-18"></use>
                    <rect stroke="#FFFFFF" stroke-width="1" x="1120.5" y="10.5" width="119" height="19"></rect>
                </g>
            </g>
            <g id="Left_bridge" transform="translate(20.000000, 57.000000)" fill="#FFFFFF">
                <rect id="Rectangle-8-Copy-10" x="120" y="30" width="5" height="310"></rect>
                <rect id="Rectangle-8-Copy" x="90" y="50" width="5" height="290"></rect>
                <rect id="Rectangle-8-Copy-3" x="60" y="70" width="5" height="270"></rect>
                <rect id="Rectangle-8-Copy-5" x="30" y="90" width="5" height="250"></rect>
                <rect id="Rectangle-8-Copy-7" x="0" y="110" width="5" height="230"></rect>
                <rect id="Rectangle-8" x="150" y="0" width="5" height="340"></rect>
            </g>
            <g id="Right_bridge" transform="translate(1265.000000, 57.000000)" fill="#FFFFFF">
                <rect id="Rectangle-8-Copy-2" x="0" y="0" width="5" height="340"></rect>
                <rect id="Rectangle-8-Copy-4" x="30" y="30" width="5" height="310"></rect>
                <rect id="Rectangle-8-Copy-6" x="60" y="50" width="5" height="290"></rect>
                <rect id="Rectangle-8-Copy-8" x="90" y="70" width="5" height="270"></rect>
                <rect id="Rectangle-8-Copy-9" x="120" y="90" width="5" height="250"></rect>
                <rect id="Rectangle-8-Copy-11" x="150" y="110" width="5" height="230"></rect>
            </g>
            <g id="Middle_Bridge" transform="translate(344.000000, 57.000000)" fill="#FFFFFF">
                <rect id="Rectangle-8-Copy-36" x="719" y="29" width="5" height="310"></rect>
                <rect id="Rectangle-8-Copy-37" x="746" y="0" width="5" height="340"></rect>
                <rect id="Rectangle-8-Copy-35" x="690" y="59.9726562" width="5" height="280"></rect>
                <rect id="Rectangle-8-Copy-34" x="660" y="90" width="5" height="250"></rect>
                <rect id="Rectangle-8-Copy-33" x="630" y="120" width="5" height="220"></rect>
                <rect id="Rectangle-8-Copy-32" x="600" y="150" width="5" height="190"></rect>
                <rect id="Rectangle-8-Copy-31" x="570" y="180" width="5" height="160"></rect>
                <rect id="Rectangle-8-Copy-30" x="540" y="209" width="5" height="130"></rect>
                <rect id="Rectangle-8-Copy-29" x="510" y="240" width="5" height="100"></rect>
                <rect id="Rectangle-8-Copy-28" x="479" y="269" width="5" height="70"></rect>
                <rect id="Rectangle-8-Copy-27" x="449" y="299" width="5" height="40"></rect>
                <rect id="Rectangle-8-Copy-26" x="419" y="320" width="5" height="20"></rect>
                <rect id="Rectangle-8-Copy-25" x="389" y="330" width="5" height="10"></rect>
                <rect id="Rectangle-8-Copy-24" x="359" y="330" width="5" height="10"></rect>
                <rect id="Rectangle-8-Copy-23" x="329" y="320" width="5" height="20"></rect>
                <rect id="Rectangle-8-Copy-22" x="299" y="299" width="5" height="40"></rect>
                <rect id="Rectangle-8-Copy-21" x="269" y="269" width="5" height="70"></rect>
                <rect id="Rectangle-8-Copy-20" x="240" y="240" width="5" height="100"></rect>
                <rect id="Rectangle-8-Copy-19" x="210" y="209" width="5" height="130"></rect>
                <rect id="Rectangle-8-Copy-18" x="180" y="180" width="5" height="160"></rect>
                <rect id="Rectangle-8-Copy-17" x="150" y="150" width="5" height="190"></rect>
                <rect id="Rectangle-8-Copy-16" x="120" y="120" width="5" height="220"></rect>
                <rect id="Rectangle-8-Copy-15" x="90" y="90" width="5" height="250"></rect>
                <rect id="Rectangle-8-Copy-14" x="60" y="59.9726562" width="5" height="280"></rect>
                <rect id="Rectangle-8-Copy-13" x="29" y="29" width="5" height="310"></rect>
                <rect id="Rectangle-8-Copy-12" x="0" y="0" width="5" height="340"></rect>
            </g>
            <path d="M20,526 C90.8017554,505.333333 152.135089,495 204,495 C216.995326,495 319.627085,524.995507 376,526 C453.648724,527.383601 740.117139,531.651721 1081,526 C1159.03447,524.706215 1243.61724,506.221014 1325,506 C1376.8439,505.859205 1409.8439,512.525872 1424,526 L1424,628 L20,628 L20,526 Z" id="Water_2" fill="#1C6BA0"></path>
        </g>
    </g>
</svg>
