
<svg width="1440px" height="640px" viewBox="0 0 1440 640" version="1.1" xmlns="http://www.w3.org/2000/svg" xmlns:xlink="http://www.w3.org/1999/xlink">
    <!-- Generator: Sketch 45.1 (43504) - http://www.bohemiancoding.com/sketch -->
    <desc>Created with Sketch.</desc>
    <defs>
        <rect id="path-1" x="0" y="0" width="1440" height="526"></rect>
        <path d="M74.1421356,61 L120.104076,15.0380592 L105.961941,0.895923599 L60,46.8578644 L14.0380592,0.895923599 L-0.104076401,15.0380592 L45.8578644,61 L-0.104076401,106.961941 L14.0380592,121.104076 L60,75.1421356 L105.961941,121.104076 L120.104076,106.961941 L74.1421356,61 Z" id="path-2"></path>
        <path d="M994.142136,60 L1040.10408,14.0380592 L1025.96194,-0.104076401 L980,45.8578644 L934.038059,-0.104076401 L919.895924,14.0380592 L965.857864,60 L919.895924,105.961941 L934.038059,120.104076 L980,74.1421356 L1025.96194,120.104076 L1040.10408,105.961941 L994.142136,60 Z" id="path-3"></path>
        <path d="M74.1421356,179 L120.104076,133.038059 L105.961941,118.895924 L60,164.857864 L14.0380592,118.895924 L-0.104076401,133.038059 L45.8578644,179 L-0.104076401,224.961941 L14.0380592,239.104076 L60,193.142136 L105.961941,239.104076 L120.104076,224.961941 L74.1421356,179 Z" id="path-4"></path>
        <path d="M994.142136,178 L1040.10408,132.038059 L1025.96194,117.895924 L980,163.857864 L934.038059,117.895924 L919.895924,132.038059 L965.857864,178 L919.895924,223.961941 L934.038059,238.104076 L980,192.142136 L1025.96194,238.104076 L1040.10408,223.961941 L994.142136,178 Z" id="path-5"></path>
        <path d="M74.1421356,293 L120.104076,247.038059 L105.961941,232.895924 L60,278.857864 L14.0380592,232.895924 L-0.104076401,247.038059 L45.8578644,293 L-0.104076401,338.961941 L14.0380592,353.104076 L60,307.142136 L105.961941,353.104076 L120.104076,338.961941 L74.1421356,293 Z" id="path-6"></path>
        <path d="M994.142136,292 L1040.10408,246.038059 L1025.96194,231.895924 L980,277.857864 L934.038059,231.895924 L919.895924,246.038059 L965.857864,292 L919.895924,337.961941 L934.038059,352.104076 L980,306.142136 L1025.96194,352.104076 L1040.10408,337.961941 L994.142136,292 Z" id="path-7"></path>
        <path d="M74.1421356,417 L120.104076,371.038059 L105.961941,356.895924 L60,402.857864 L14.0380592,356.895924 L-0.104076401,371.038059 L45.8578644,417 L-0.104076401,462.961941 L14.0380592,477.104076 L60,431.142136 L105.961941,477.104076 L120.104076,462.961941 L74.1421356,417 Z" id="path-8"></path>
        <path d="M994.142136,416 L1040.10408,370.038059 L1025.96194,355.895924 L980,401.857864 L934.038059,355.895924 L919.895924,370.038059 L965.857864,416 L919.895924,461.961941 L934.038059,476.104076 L980,430.142136 L1025.96194,476.104076 L1040.10408,461.961941 L994.142136,416 Z" id="path-9"></path>
        <path d="M74.1421356,534 L120.104076,488.038059 L105.961941,473.895924 L60,519.857864 L14.0380592,473.895924 L-0.104076401,488.038059 L45.8578644,534 L-0.104076401,579.961941 L14.0380592,594.104076 L60,548.142136 L105.961941,594.104076 L120.104076,579.961941 L74.1421356,534 Z" id="path-10"></path>
        <path d="M994.142136,533 L1040.10408,487.038059 L1025.96194,472.895924 L980,518.857864 L934.038059,472.895924 L919.895924,487.038059 L965.857864,533 L919.895924,578.961941 L934.038059,593.104076 L980,547.142136 L1025.96194,593.104076 L1040.10408,578.961941 L994.142136,533 Z" id="path-11"></path>
        <rect id="path-12" x="300" y="0" width="20" height="603"></rect>
        <rect id="path-13" x="200" y="0" width="20" height="603"></rect>
        <rect id="path-14" x="1120" y="0" width="20" height="603"></rect>
        <rect id="path-15" x="200" y="10" width="120" height="20"></rect>
        <rect id="path-16" x="1220" y="0" width="20" height="603"></rect>
        <rect id="path-17" x="0" y="376" width="1440" height="20"></rect>
        <rect id="path-18" x="1120" y="10" width="120" height="20"></rect>
        <rect id="path-19" x="120" y="30" width="5" height="310"></rect>
        <rect id="path-20" x="90" y="50" width="5" height="290"></rect>
        <rect id="path-21" x="60" y="70" width="5" height="270"></rect>
        <rect id="path-22" x="30" y="90" width="5" height="250"></rect>
        <rect id="path-23" x="0" y="110" width="5" height="230"></rect>
        <rect id="path-24" x="150" y="0" width="5" height="340"></rect>
        <rect id="path-25" x="0" y="0" width="5" height="340"></rect>
        <rect id="path-26" x="30" y="30" width="5" height="310"></rect>
        <rect id="path-27" x="60" y="50" width="5" height="290"></rect>
        <rect id="path-28" x="90" y="70" width="5" height="270"></rect>
        <rect id="path-29" x="120" y="90" width="5" height="250"></rect>
        <rect id="path-30" x="150" y="110" width="5" height="230"></rect>
        <rect id="path-31" x="719" y="29" width="5" height="310"></rect>
        <rect id="path-32" x="746" y="0" width="5" height="340"></rect>
        <rect id="path-33" x="690" y="60" width="5" height="280"></rect>
        <rect id="path-34" x="660" y="90" width="5" height="250"></rect>
        <rect id="path-35" x="630" y="120" width="5" height="220"></rect>
        <rect id="path-36" x="600" y="150" width="5" height="190"></rect>
        <rect id="path-37" x="570" y="180" width="5" height="160"></rect>
        <rect id="path-38" x="540" y="209" width="5" height="130"></rect>
        <rect id="path-39" x="510" y="240" width="5" height="100"></rect>
        <rect id="path-40" x="479" y="269" width="5" height="70"></rect>
        <rect id="path-41" x="449" y="299" width="5" height="40"></rect>
        <rect id="path-42" x="419" y="320" width="5" height="20"></rect>
        <rect id="path-43" x="389" y="330" width="5" height="10"></rect>
        <rect id="path-44" x="359" y="330" width="5" height="10"></rect>
        <rect id="path-45" x="329" y="320" width="5" height="20"></rect>
        <rect id="path-46" x="299" y="299" width="5" height="40"></rect>
        <rect id="path-47" x="269" y="269" width="5" height="70"></rect>
        <rect id="path-48" x="240" y="240" width="5" height="100"></rect>
        <rect id="path-49" x="210" y="209" width="5" height="130"></rect>
        <rect id="path-50" x="180" y="180" width="5" height="160"></rect>
        <rect id="path-51" x="150" y="150" width="5" height="190"></rect>
        <rect id="path-52" x="120" y="120" width="5" height="220"></rect>
        <rect id="path-53" x="90" y="90" width="5" height="250"></rect>
        <rect id="path-54" x="60" y="60" width="5" height="280"></rect>
        <rect id="path-55" x="29" y="29" width="5" height="310"></rect>
        <rect id="path-56" x="0" y="0" width="5" height="340"></rect>
    </defs>
    <g id="Page-1" stroke="none" stroke-width="1" fill="none" fill-rule="evenodd">
        <g id="Bay_Bridge_Night">
            <g id="Night">
                <use fill="#1B2B47" fill-rule="evenodd" xlink:href="#path-1"></use>
                <rect stroke="#979797" stroke-width="1" x="0.5" y="0.5" width="1439" height="525"></rect>
            </g>
            <g id="Bridge_Axes" transform="translate(200.000000, 30.000000)">
                <g id="Combined-Shape">
                    <use fill="#8B0000" fill-rule="evenodd" xlink:href="#path-2"></use>
                    <path stroke="#FFFFFF" stroke-width="1" d="M119.39697,15.0380592 L105.961941,1.60303038 L60,47.5649712 L14.0380592,1.60303038 L0.60303038,15.0380592 L46.5649712,61 L0.60303038,106.961941 L14.0380592,120.39697 L60,74.4350288 L105.961941,120.39697 L119.39697,106.961941 L73.4350288,61 L119.39697,15.0380592 Z"></path>
                </g>
                <g id="Combined-Shape-Copy-5">
                    <use fill="#8B0000" fill-rule="evenodd" xlink:href="#path-3"></use>
                    <path stroke="#FFFFFF" stroke-width="1" d="M1039.39697,14.0380592 L1025.96194,0.60303038 L980,46.5649712 L934.038059,0.60303038 L920.60303,14.0380592 L966.564971,60 L920.60303,105.961941 L934.038059,119.39697 L980,73.4350288 L1025.96194,119.39697 L1039.39697,105.961941 L993.435029,60 L1039.39697,14.0380592 Z"></path>
                </g>
                <g id="Combined-Shape-Copy">
                    <use fill="#8B0000" fill-rule="evenodd" xlink:href="#path-4"></use>
                    <path stroke="#FFFFFF" stroke-width="1" d="M119.39697,133.038059 L105.961941,119.60303 L60,165.564971 L14.0380592,119.60303 L0.60303038,133.038059 L46.5649712,179 L0.60303038,224.961941 L14.0380592,238.39697 L60,192.435029 L105.961941,238.39697 L119.39697,224.961941 L73.4350288,179 L119.39697,133.038059 Z"></path>
                </g>
                <g id="Combined-Shape-Copy-6">
                    <use fill="#8B0000" fill-rule="evenodd" xlink:href="#path-5"></use>
                    <path stroke="#FFFFFF" stroke-width="1" d="M1039.39697,132.038059 L1025.96194,118.60303 L980,164.564971 L934.038059,118.60303 L920.60303,132.038059 L966.564971,178 L920.60303,223.961941 L934.038059,237.39697 L980,191.435029 L1025.96194,237.39697 L1039.39697,223.961941 L993.435029,178 L1039.39697,132.038059 Z"></path>
                </g>
                <g id="Combined-Shape-Copy-2">
                    <use fill="#8B0000" fill-rule="evenodd" xlink:href="#path-6"></use>
                    <path stroke="#FFFFFF" stroke-width="1" d="M119.39697,247.038059 L105.961941,233.60303 L60,279.564971 L14.0380592,233.60303 L0.60303038,247.038059 L46.5649712,293 L0.60303038,338.961941 L14.0380592,352.39697 L60,306.435029 L105.961941,352.39697 L119.39697,338.961941 L73.4350288,293 L119.39697,247.038059 Z"></path>
                </g>
                <g id="Combined-Shape-Copy-7">
                    <use fill="#8B0000" fill-rule="evenodd" xlink:href="#path-7"></use>
                    <path stroke="#FFFFFF" stroke-width="1" d="M1039.39697,246.038059 L1025.96194,232.60303 L980,278.564971 L934.038059,232.60303 L920.60303,246.038059 L966.564971,292 L920.60303,337.961941 L934.038059,351.39697 L980,305.435029 L1025.96194,351.39697 L1039.39697,337.961941 L993.435029,292 L1039.39697,246.038059 Z"></path>
                </g>
                <g id="Combined-Shape-Copy-3">
                    <use fill="#8B0000" fill-rule="evenodd" xlink:href="#path-8"></use>
                    <path stroke="#FFFFFF" stroke-width="1" d="M119.39697,371.038059 L105.961941,357.60303 L60,403.564971 L14.0380592,357.60303 L0.60303038,371.038059 L46.5649712,417 L0.60303038,462.961941 L14.0380592,476.39697 L60,430.435029 L105.961941,476.39697 L119.39697,462.961941 L73.4350288,417 L119.39697,371.038059 Z"></path>
                </g>
                <g id="Combined-Shape-Copy-8">
                    <use fill="#8B0000" fill-rule="evenodd" xlink:href="#path-9"></use>
                    <path stroke="#FFFFFF" stroke-width="1" d="M1039.39697,370.038059 L1025.96194,356.60303 L980,402.564971 L934.038059,356.60303 L920.60303,370.038059 L966.564971,416 L920.60303,461.961941 L934.038059,475.39697 L980,429.435029 L1025.96194,475.39697 L1039.39697,461.961941 L993.435029,416 L1039.39697,370.038059 Z"></path>
                </g>
                <g id="Combined-Shape-Copy-4">
                    <use fill="#8B0000" fill-rule="evenodd" xlink:href="#path-10"></use>
                    <path stroke="#979797" stroke-width="1" d="M119.39697,488.038059 L105.961941,474.60303 L60,520.564971 L14.0380592,474.60303 L0.60303038,488.038059 L46.5649712,534 L0.60303038,579.961941 L14.0380592,593.39697 L60,547.435029 L105.961941,593.39697 L119.39697,579.961941 L73.4350288,534 L119.39697,488.038059 Z"></path>
                </g>
                <g id="Combined-Shape-Copy-9">
                    <use fill="#8B0000" fill-rule="evenodd" xlink:href="#path-11"></use>
                    <path stroke="#979797" stroke-width="1" d="M1039.39697,487.038059 L1025.96194,473.60303 L980,519.564971 L934.038059,473.60303 L920.60303,487.038059 L966.564971,533 L920.60303,578.961941 L934.038059,592.39697 L980,546.435029 L1025.96194,592.39697 L1039.39697,578.961941 L993.435029,533 L1039.39697,487.038059 Z"></path>
                </g>
            </g>
            <g id="Bridge_structure" transform="translate(0.000000, 20.000000)">
                <g id="Rectangle-2">
                    <use fill="#8B0000" fill-rule="evenodd" xlink:href="#path-12"></use>
                    <rect stroke="#FFFFFF" stroke-width="1" x="300.5" y="0.5" width="19" height="602"></rect>
                </g>
                <g id="Rectangle-2-Copy-2">
                    <use fill="#8B0000" fill-rule="evenodd" xlink:href="#path-13"></use>
                    <rect stroke="#FFFFFF" stroke-width="1" x="200.5" y="0.5" width="19" height="602"></rect>
                </g>
                <g id="Rectangle-2-Copy">
                    <use fill="#8B0000" fill-rule="evenodd" xlink:href="#path-14"></use>
                    <rect stroke="#FFFFFF" stroke-width="1" x="1120.5" y="0.5" width="19" height="602"></rect>
                </g>
                <g id="Rectangle-5">
                    <use fill="#8B0000" fill-rule="evenodd" xlink:href="#path-15"></use>
                    <rect stroke="#FFFFFF" stroke-width="1" x="200.5" y="10.5" width="119" height="19"></rect>
                </g>
                <g id="Rectangle-2-Copy-3">
                    <use fill="#8B0000" fill-rule="evenodd" xlink:href="#path-16"></use>
                    <rect stroke="#FFFFFF" stroke-width="1" x="1220.5" y="0.5" width="19" height="602"></rect>
                </g>
                <g id="Rectangle-3">
                    <use fill="#8B0000" fill-rule="evenodd" xlink:href="#path-17"></use>
                    <rect stroke="#FFFFFF" stroke-width="1" x="0.5" y="376.5" width="1439" height="19"></rect>
                </g>
                <g id="Rectangle-5-Copy">
                    <use fill="#8B0000" fill-rule="evenodd" xlink:href="#path-18"></use>
                    <rect stroke="#FFFFFF" stroke-width="1" x="1120.5" y="10.5" width="119" height="19"></rect>
                </g>
            </g>
            <g id="Left_bridge" transform="translate(20.000000, 57.000000)">
                <g id="Rectangle-8-Copy-10">
                    <use fill="#000000" fill-rule="evenodd" xlink:href="#path-19"></use>
                    <rect stroke="#FFFFFF" stroke-width="1" x="120.5" y="30.5" width="4" height="309"></rect>
                </g>
                <g id="Rectangle-8-Copy">
                    <use fill="#000000" fill-rule="evenodd" xlink:href="#path-20"></use>
                    <rect stroke="#FFFFFF" stroke-width="1" x="90.5" y="50.5" width="4" height="289"></rect>
                </g>
                <g id="Rectangle-8-Copy-3">
                    <use fill="#000000" fill-rule="evenodd" xlink:href="#path-21"></use>
                    <rect stroke="#FFFFFF" stroke-width="1" x="60.5" y="70.5" width="4" height="269"></rect>
                </g>
                <g id="Rectangle-8-Copy-5">
                    <use fill="#000000" fill-rule="evenodd" xlink:href="#path-22"></use>
                    <rect stroke="#FFFFFF" stroke-width="1" x="30.5" y="90.5" width="4" height="249"></rect>
                </g>
                <g id="Rectangle-8-Copy-7">
                    <use fill="#000000" fill-rule="evenodd" xlink:href="#path-23"></use>
                    <rect stroke="#FFFFFF" stroke-width="1" x="0.5" y="110.5" width="4" height="229"></rect>
                </g>
                <g id="Rectangle-8">
                    <use fill="#000000" fill-rule="evenodd" xlink:href="#path-24"></use>
                    <rect stroke="#FFFFFF" stroke-width="1" x="150.5" y="0.5" width="4" height="339"></rect>
                </g>
            </g>
            <g id="Right_bridge" transform="translate(1265.000000, 57.000000)">
                <g id="Rectangle-8-Copy-2">
                    <use fill="#000000" fill-rule="evenodd" xlink:href="#path-25"></use>
                    <rect stroke="#FFFFFF" stroke-width="1" x="0.5" y="0.5" width="4" height="339"></rect>
                </g>
                <g id="Rectangle-8-Copy-4">
                    <use fill="#000000" fill-rule="evenodd" xlink:href="#path-26"></use>
                    <rect stroke="#FFFFFF" stroke-width="1" x="30.5" y="30.5" width="4" height="309"></rect>
                </g>
                <g id="Rectangle-8-Copy-6">
                    <use fill="#000000" fill-rule="evenodd" xlink:href="#path-27"></use>
                    <rect stroke="#FFFFFF" stroke-width="1" x="60.5" y="50.5" width="4" height="289"></rect>
                </g>
                <g id="Rectangle-8-Copy-8">
                    <use fill="#000000" fill-rule="evenodd" xlink:href="#path-28"></use>
                    <rect stroke="#FFFFFF" stroke-width="1" x="90.5" y="70.5" width="4" height="269"></rect>
                </g>
                <g id="Rectangle-8-Copy-9">
                    <use fill="#000000" fill-rule="evenodd" xlink:href="#path-29"></use>
                    <rect stroke="#FFFFFF" stroke-width="1" x="120.5" y="90.5" width="4" height="249"></rect>
                </g>
                <g id="Rectangle-8-Copy-11">
                    <use fill="#000000" fill-rule="evenodd" xlink:href="#path-30"></use>
                    <rect stroke="#FFFFFF" stroke-width="1" x="150.5" y="110.5" width="4" height="229"></rect>
                </g>
            </g>
            <g id="Middle_Bridge" transform="translate(344.000000, 57.000000)">
                <g id="Rectangle-8-Copy-36">
                    <use fill="#000000" fill-rule="evenodd" xlink:href="#path-31"></use>
                    <rect stroke="#FFFFFF" stroke-width="1" x="719.5" y="29.5" width="4" height="309"></rect>
                </g>
                <g id="Rectangle-8-Copy-37">
                    <use fill="#000000" fill-rule="evenodd" xlink:href="#path-32"></use>
                    <rect stroke="#FFFFFF" stroke-width="1" x="746.5" y="0.5" width="4" height="339"></rect>
                </g>
                <g id="Rectangle-8-Copy-35">
                    <use fill="#000000" fill-rule="evenodd" xlink:href="#path-33"></use>
                    <rect stroke="#FFFFFF" stroke-width="1" x="690.5" y="60.5" width="4" height="279"></rect>
                </g>
                <g id="Rectangle-8-Copy-34">
                    <use fill="#000000" fill-rule="evenodd" xlink:href="#path-34"></use>
                    <rect stroke="#FFFFFF" stroke-width="1" x="660.5" y="90.5" width="4" height="249"></rect>
                </g>
                <g id="Rectangle-8-Copy-33">
                    <use fill="#000000" fill-rule="evenodd" xlink:href="#path-35"></use>
                    <rect stroke="#FFFFFF" stroke-width="1" x="630.5" y="120.5" width="4" height="219"></rect>
                </g>
                <g id="Rectangle-8-Copy-32">
                    <use fill="#000000" fill-rule="evenodd" xlink:href="#path-36"></use>
                    <rect stroke="#FFFFFF" stroke-width="1" x="600.5" y="150.5" width="4" height="189"></rect>
                </g>
                <g id="Rectangle-8-Copy-31">
                    <use fill="#000000" fill-rule="evenodd" xlink:href="#path-37"></use>
                    <rect stroke="#FFFFFF" stroke-width="1" x="570.5" y="180.5" width="4" height="159"></rect>
                </g>
                <g id="Rectangle-8-Copy-30">
                    <use fill="#000000" fill-rule="evenodd" xlink:href="#path-38"></use>
                    <rect stroke="#FFFFFF" stroke-width="1" x="540.5" y="209.5" width="4" height="129"></rect>
                </g>
                <g id="Rectangle-8-Copy-29">
                    <use fill="#000000" fill-rule="evenodd" xlink:href="#path-39"></use>
                    <rect stroke="#FFFFFF" stroke-width="1" x="510.5" y="240.5" width="4" height="99"></rect>
                </g>
                <g id="Rectangle-8-Copy-28">
                    <use fill="#000000" fill-rule="evenodd" xlink:href="#path-40"></use>
                    <rect stroke="#FFFFFF" stroke-width="1" x="479.5" y="269.5" width="4" height="69"></rect>
                </g>
                <g id="Rectangle-8-Copy-27">
                    <use fill="#000000" fill-rule="evenodd" xlink:href="#path-41"></use>
                    <rect stroke="#FFFFFF" stroke-width="1" x="449.5" y="299.5" width="4" height="39"></rect>
                </g>
                <g id="Rectangle-8-Copy-26">
                    <use fill="#000000" fill-rule="evenodd" xlink:href="#path-42"></use>
                    <rect stroke="#FFFFFF" stroke-width="1" x="419.5" y="320.5" width="4" height="19"></rect>
                </g>
                <g id="Rectangle-8-Copy-25">
                    <use fill="#000000" fill-rule="evenodd" xlink:href="#path-43"></use>
                    <rect stroke="#FFFFFF" stroke-width="1" x="389.5" y="330.5" width="4" height="9"></rect>
                </g>
                <g id="Rectangle-8-Copy-24">
                    <use fill="#000000" fill-rule="evenodd" xlink:href="#path-44"></use>
                    <rect stroke="#FFFFFF" stroke-width="1" x="359.5" y="330.5" width="4" height="9"></rect>
                </g>
                <g id="Rectangle-8-Copy-23">
                    <use fill="#000000" fill-rule="evenodd" xlink:href="#path-45"></use>
                    <rect stroke="#FFFFFF" stroke-width="1" x="329.5" y="320.5" width="4" height="19"></rect>
                </g>
                <g id="Rectangle-8-Copy-22">
                    <use fill="#000000" fill-rule="evenodd" xlink:href="#path-46"></use>
                    <rect stroke="#FFFFFF" stroke-width="1" x="299.5" y="299.5" width="4" height="39"></rect>
                </g>
                <g id="Rectangle-8-Copy-21">
                    <use fill="#000000" fill-rule="evenodd" xlink:href="#path-47"></use>
                    <rect stroke="#FFFFFF" stroke-width="1" x="269.5" y="269.5" width="4" height="69"></rect>
                </g>
                <g id="Rectangle-8-Copy-20">
                    <use fill="#000000" fill-rule="evenodd" xlink:href="#path-48"></use>
                    <rect stroke="#FFFFFF" stroke-width="1" x="240.5" y="240.5" width="4" height="99"></rect>
                </g>
                <g id="Rectangle-8-Copy-19">
                    <use fill="#000000" fill-rule="evenodd" xlink:href="#path-49"></use>
                    <rect stroke="#FFFFFF" stroke-width="1" x="210.5" y="209.5" width="4" height="129"></rect>
                </g>
                <g id="Rectangle-8-Copy-18">
                    <use fill="#000000" fill-rule="evenodd" xlink:href="#path-50"></use>
                    <rect stroke="#FFFFFF" stroke-width="1" x="180.5" y="180.5" width="4" height="159"></rect>
                </g>
                <g id="Rectangle-8-Copy-17">
                    <use fill="#000000" fill-rule="evenodd" xlink:href="#path-51"></use>
                    <rect stroke="#FFFFFF" stroke-width="1" x="150.5" y="150.5" width="4" height="189"></rect>
                </g>
                <g id="Rectangle-8-Copy-16">
                    <use fill="#000000" fill-rule="evenodd" xlink:href="#path-52"></use>
                    <rect stroke="#FFFFFF" stroke-width="1" x="120.5" y="120.5" width="4" height="219"></rect>
                </g>
                <g id="Rectangle-8-Copy-15">
                    <use fill="#000000" fill-rule="evenodd" xlink:href="#path-53"></use>
                    <rect stroke="#FFFFFF" stroke-width="1" x="90.5" y="90.5" width="4" height="249"></rect>
                </g>
                <g id="Rectangle-8-Copy-14">
                    <use fill="#000000" fill-rule="evenodd" xlink:href="#path-54"></use>
                    <rect stroke="#FFFFFF" stroke-width="1" x="60.5" y="60.5" width="4" height="279"></rect>
                </g>
                <g id="Rectangle-8-Copy-13">
                    <use fill="#000000" fill-rule="evenodd" xlink:href="#path-55"></use>
                    <rect stroke="#FFFFFF" stroke-width="1" x="29.5" y="29.5" width="4" height="309"></rect>
                </g>
                <g id="Rectangle-8-Copy-12">
                    <use fill="#000000" fill-rule="evenodd" xlink:href="#path-56"></use>
                    <rect stroke="#FFFFFF" stroke-width="1" x="0.5" y="0.5" width="4" height="339"></rect>
                </g>
            </g>
            <path d="M1.59161573e-12,524 C1.59161573e-12,524 121.882383,496.831603 191,492 C210.698725,490.622979 323.138722,522.516602 385,524 C421.341464,524.871448 704,494 708,492 C712,490 828.433072,518 930,518 C964.046159,518 1183.93406,527.884365 1260,524 C1410.85493,516.296479 1440,492 1440,492 C1440,492 1440,640 1440,640 L1.59161573e-12,640 L1.59161573e-12,524 Z" id="Ocean" fill="#0B121E"></path>
        </g>
    </g>
</svg>
